<svg width="24" height="24" viewBox="0 0 24 24" fill="none" xmlns="http://www.w3.org/2000/svg">
<path d="M17.3767 0H6.62299C2.97108 0 0 2.97122 0 6.62313V17.3769C0 21.0289 2.97108 24 6.62299 24H17.3767C21.0289 24 24 21.0288 24 17.3769V6.62313C24.0001 2.97122 21.0289 0 17.3767 0ZM21.8707 17.3769C21.8707 19.8548 19.8548 21.8706 17.3769 21.8706H6.62299C4.14522 21.8707 2.1294 19.8548 2.1294 17.3769V6.62313C2.1294 4.14537 4.14522 2.1294 6.62299 2.1294H17.3767C19.8546 2.1294 21.8706 4.14537 21.8706 6.62313V17.3769H21.8707Z" fill="white"/>
<path d="M12.0001 5.81836C8.59009 5.81836 5.81592 8.59254 5.81592 12.0026C5.81592 15.4124 8.59009 18.1865 12.0001 18.1865C15.4101 18.1865 18.1843 15.4124 18.1843 12.0026C18.1843 8.59254 15.4101 5.81836 12.0001 5.81836ZM12.0001 16.0569C9.76438 16.0569 7.94531 14.2381 7.94531 12.0024C7.94531 9.76654 9.76424 7.94761 12.0001 7.94761C14.236 7.94761 16.0549 9.76654 16.0549 12.0024C16.0549 14.2381 14.2358 16.0569 12.0001 16.0569Z" fill="white"/>
</svg>
