<svg width="28" height="28" viewBox="0 0 28 28" fill="none" xmlns="http://www.w3.org/2000/svg">
<path d="M25.375 3.5H2.625C1.17523 3.5 0 4.67523 0 6.125V21.875C0 23.3248 1.17523 24.5 2.625 24.5H25.375C26.8248 24.5 28 23.3248 28 21.875V6.125C28 4.67523 26.8248 3.5 25.375 3.5ZM25.375 6.125V8.35652C24.1488 9.35506 22.1939 10.9078 18.0148 14.1802C17.0938 14.9046 15.2694 16.6451 14 16.6248C12.7308 16.6453 10.9058 14.9044 9.98523 14.1802C5.80672 10.9082 3.85137 9.35523 2.625 8.35652V6.125H25.375ZM2.625 21.875V11.7249C3.87811 12.723 5.65518 14.1236 8.3638 16.2446C9.5591 17.1855 11.6524 19.2626 14 19.2499C16.3361 19.2626 18.4028 17.2156 19.6357 16.245C22.3443 14.1241 24.1218 12.7231 25.375 11.7249V21.875H2.625Z" fill="white"/>
</svg>
