<svg width="23" height="22" viewBox="0 0 23 22" fill="none" xmlns="http://www.w3.org/2000/svg">
<path d="M22.0038 17.3623C22.0505 17.7196 21.9416 18.0304 21.6776 18.2945L18.578 21.3706C18.4382 21.526 18.2557 21.6582 18.0304 21.7668C17.8051 21.8756 17.5837 21.9455 17.3663 21.9765C17.3508 21.9765 17.304 21.9805 17.2263 21.9883C17.1487 21.996 17.0478 22 16.9235 22C16.6282 22 16.1504 21.9495 15.4901 21.8485C14.8298 21.7475 14.0219 21.4988 13.0665 21.1027C12.1108 20.7065 11.0272 20.1122 9.81535 19.3199C8.60352 18.5276 7.31394 17.44 5.94671 16.0572C4.85914 14.9851 3.95801 13.9597 3.24332 12.9809C2.52864 12.0021 1.95378 11.0971 1.51875 10.2659C1.08368 9.43466 0.757414 8.68113 0.5399 8.00528C0.322387 7.32944 0.174788 6.74681 0.0971044 6.2574C0.0194209 5.768 -0.0116525 5.38347 0.00388416 5.1038C0.0194209 4.82414 0.0271892 4.66878 0.0271892 4.6377C0.0582626 4.42019 0.128178 4.19879 0.236935 3.97351C0.345692 3.74823 0.477753 3.56567 0.63312 3.42584L3.73269 0.326271C3.95021 0.108757 4.19879 0 4.47845 0C4.68043 0 4.8591 0.0582626 5.01447 0.174788C5.16984 0.291313 5.3019 0.435028 5.41066 0.605931L7.90429 5.33685C8.04413 5.58544 8.08297 5.85733 8.02082 6.15253C7.95867 6.44773 7.82661 6.69632 7.62463 6.89829L6.48269 8.04024C6.45161 8.07131 6.42442 8.12181 6.40112 8.19172C6.37781 8.26164 6.36616 8.3199 6.36616 8.36651C6.42831 8.69278 6.56814 9.06566 6.78565 9.48515C6.97209 9.85803 7.25952 10.3125 7.64794 10.8485C8.03636 11.3845 8.58791 12.0021 9.3026 12.7012C10.0017 13.416 10.6232 13.9713 11.167 14.3676C11.7107 14.7636 12.1653 15.0551 12.5304 15.2415C12.8955 15.4279 13.1752 15.5406 13.3693 15.5793L13.6606 15.6376C13.6916 15.6376 13.7422 15.6259 13.8121 15.6027C13.882 15.5793 13.9325 15.5522 13.9636 15.521L15.292 14.1694C15.5718 13.9208 15.8979 13.7965 16.2708 13.7965C16.535 13.7965 16.7446 13.8431 16.9 13.9363H16.9233L21.4211 16.5931C21.7475 16.7952 21.9417 17.0515 22.0038 17.3623Z" fill="white"/>
</svg>
