<svg width="24" height="24" fill="none" xmlns="http://www.w3.org/2000/svg"><path d="M17.377 0H6.623A6.63 6.63 0 000 6.623v10.754A6.63 6.63 0 006.623 24h10.754A6.63 6.63 0 0024 17.377V6.623A6.63 6.63 0 0017.377 0zm4.494 17.377a4.499 4.499 0 01-4.494 4.494H6.623a4.499 4.499 0 01-4.494-4.494V6.623A4.499 4.499 0 016.623 2.13h10.754a4.499 4.499 0 014.494 4.494v10.754z" fill="#fff"/><path d="M12 5.818a6.191 6.191 0 00-6.184 6.185A6.191 6.191 0 0012 18.186a6.191 6.191 0 006.184-6.183A6.191 6.191 0 0012 5.818zm0 10.239a4.06 4.06 0 01-4.055-4.055A4.06 4.06 0 0112 7.948a4.06 4.06 0 014.055 4.054A4.06 4.06 0 0112 16.057z" fill="#fff"/></svg>