<svg width="23" height="22" fill="none" xmlns="http://www.w3.org/2000/svg"><path d="M22.004 17.362c.046.358-.062.668-.326.933l-3.1 3.076a1.75 1.75 0 01-.548.396 2.262 2.262 0 01-.664.21c-.015 0-.062.003-.14.011a3.182 3.182 0 01-.302.012c-.296 0-.774-.05-1.434-.151-.66-.102-1.468-.35-2.424-.746-.955-.397-2.039-.99-3.25-1.783-1.212-.792-2.502-1.88-3.87-3.263-1.087-1.072-1.988-2.097-2.703-3.076-.714-.979-1.29-1.884-1.724-2.715-.435-.831-.762-1.585-.98-2.26a11.993 11.993 0 01-.442-1.749C.02 5.768-.012 5.383.004 5.104c.015-.28.023-.435.023-.466a2.24 2.24 0 01.21-.664c.109-.226.24-.408.396-.548l3.1-3.1A1.03 1.03 0 014.478 0a.87.87 0 01.536.175c.156.116.288.26.397.43l2.493 4.732c.14.248.179.52.117.816a1.453 1.453 0 01-.396.745L6.483 8.04a.389.389 0 00-.082.152.575.575 0 00-.035.175c.062.326.202.699.42 1.118.186.373.474.828.862 1.364.388.535.94 1.153 1.655 1.852.699.715 1.32 1.27 1.864 1.667.544.396.998.687 1.363.873.366.187.645.3.84.338l.29.059a.558.558 0 00.152-.035c.07-.024.12-.05.152-.082l1.328-1.352c.28-.248.606-.373.979-.373.264 0 .474.047.629.14h.023l4.498 2.657c.326.202.52.459.583.77z" fill="#fff"/></svg>