<svg width="74" height="74" fill="none" xmlns="http://www.w3.org/2000/svg"><path d="M37 55.173c-4.086 0-7.4-3.529-7.4-7.882 0-4.352 3.314-7.882 7.4-7.882s7.4 3.53 7.4 7.882c-.004 4.352-3.315 7.877-7.4 7.882zm0-13.137c-2.724 0-4.933 2.353-4.933 5.255 0 2.902 2.209 5.255 4.933 5.255 2.724 0 4.933-2.353 4.933-5.255 0-2.902-2.209-5.255-4.933-5.255zM14.8 15.764c-4.086 0-7.4-3.53-7.4-7.882S10.714 0 14.8 0s7.4 3.53 7.4 7.882c-.004 4.351-3.315 7.877-7.4 7.882zm0-13.137c-2.724 0-4.933 2.353-4.933 5.255 0 2.902 2.209 5.255 4.933 5.255 2.724 0 4.933-2.353 4.933-5.255 0-2.902-2.209-5.255-4.933-5.255zm44.4 13.137c-4.086 0-7.4-3.53-7.4-7.882S55.114 0 59.2 0s7.4 3.53 7.4 7.882c-.004 4.351-3.315 7.877-7.4 7.882zm0-13.137c-2.724 0-4.933 2.353-4.933 5.255 0 2.902 2.209 5.255 4.933 5.255 2.724 0 4.933-2.353 4.933-5.255 0-2.902-2.209-5.255-4.933-5.255zM19.07 62.475C10.97 56.69 5.802 47.276 5.037 36.921l2.46-.21c.706 9.558 5.477 18.246 12.953 23.585l-1.38 2.18zm35.293.398l-1.337-2.206c7.71-5.322 12.68-14.136 13.472-23.885l2.459.217C68.1 47.56 62.715 57.108 54.363 62.873zM25.172 5.246l-.988-2.408c8.06-3.73 17.201-3.785 25.3-.153l-.961 2.42c-7.475-3.352-15.912-3.3-23.35.14h-.001zm-4.205 10.518H8.633C3.868 15.769.005 19.884 0 24.959v6.175l3.419 1.325a31.444 31.444 0 0022.762 0l3.419-1.325v-6.175c-.005-5.076-3.868-9.19-8.633-9.195zm6.166 13.53l-1.796.696c-.627.242-1.266.44-1.904.637v-8.295h-2.466v8.942c-4.07.884-8.265.884-12.334 0v-8.942H6.167v8.295c-.638-.198-1.277-.393-1.904-.637l-1.796-.696V24.96c.004-3.626 2.762-6.563 6.166-6.568h12.334c3.404.005 6.162 2.942 6.166 6.568v4.335zm38.234-13.53H53.033c-4.765.005-8.628 4.12-8.633 9.195v6.175l3.419 1.325a31.443 31.443 0 0022.762 0L74 31.134v-6.175c-.005-5.076-3.868-9.19-8.633-9.195zm6.166 13.53l-1.796.696c-.627.242-1.266.44-1.904.637v-8.295h-2.466v8.942c-4.07.884-8.265.884-12.334 0v-8.942h-2.466v8.295c-.638-.198-1.277-.393-1.904-.637l-1.796-.696V24.96c.004-3.626 2.762-6.563 6.166-6.568h12.334c3.404.005 6.162 2.942 6.166 6.568v4.335z" fill="#FF9F00"/><path d="M43.167 55.173H30.833c-4.765.006-8.628 4.12-8.633 9.195v6.175l3.419 1.325a31.443 31.443 0 0022.762 0l3.419-1.325v-6.175c-.005-5.076-3.868-9.19-8.633-9.195zm6.166 13.53l-1.796.696c-.627.242-1.266.44-1.904.638V61.74h-2.466v8.942c-4.07.884-8.265.884-12.334 0V61.74h-2.466v8.296c-.638-.199-1.277-.394-1.904-.638l-1.796-.696v-4.335c.004-3.625 2.762-6.563 6.166-6.568h12.334c3.404.005 6.162 2.943 6.166 6.568v4.335z" fill="#FF9F00"/></svg>