<svg width="50" height="74" fill="none" xmlns="http://www.w3.org/2000/svg"><path d="M45.63 64.309v-5.602a13.545 13.545 0 00-4.739-10.301L28.794 38.035a1.233 1.233 0 01-.43-.936V36.9c-.001-.36.156-.703.43-.937l12.098-10.369a13.55 13.55 0 004.738-10.302V9.691A4.923 4.923 0 0044.397 0H4.93a4.924 4.924 0 00-1.233 9.691v5.602a13.544 13.544 0 004.738 10.301l12.098 10.371c.273.235.43.577.43.936v.198c0 .36-.157.703-.43.937L8.435 48.405a13.55 13.55 0 00-4.738 10.302v5.602A4.923 4.923 0 004.93 74h39.467a4.923 4.923 0 001.233-9.691zM6.164 60.224a25.061 25.061 0 007.893-2.363A22.399 22.399 0 0124.664 55.5a22.403 22.403 0 0110.606 2.36 25.06 25.06 0 007.894 2.364v3.91h-37v-3.91zm-3.7-55.29A2.467 2.467 0 014.93 2.466h39.467a2.467 2.467 0 010 4.933H4.93a2.467 2.467 0 01-2.466-2.467zm3.7 4.933h37v5.426c0 1.997-.538 3.957-1.558 5.674H7.722a11.08 11.08 0 01-1.558-5.674V9.867zm3.876 40.411l12.097-10.37a3.698 3.698 0 001.293-2.81v-.197a3.69 3.69 0 00-1.293-2.808L10.04 23.721c-.106-.09-.2-.192-.302-.288h29.85c-.105.096-.197.198-.304.289l-12.098 10.37a3.698 3.698 0 00-1.289 2.81v.197c0 1.08.472 2.106 1.292 2.808l12.098 10.372a11.069 11.069 0 013.824 7.457 22.871 22.871 0 01-6.842-2.129 24.751 24.751 0 00-11.605-2.574 24.754 24.754 0 00-11.606 2.574 22.862 22.862 0 01-6.841 2.129 11.074 11.074 0 013.823-7.458zm34.357 21.255H4.93a2.467 2.467 0 010-4.933h39.467a2.467 2.467 0 010 4.933z" fill="#FF9F00"/><path d="M23.43 39.467h2.467v2.466H23.43v-2.466zm0 4.933h2.467v2.467H23.43V44.4zm0 4.933h2.467V51.8H23.43v-2.467z" fill="#FF9F00"/></svg>