<svg width="74" height="89" fill="none" xmlns="http://www.w3.org/2000/svg"><path d="M73.675 77.318l-9.38-12.004a13.573 13.573 0 007.421-5.47c2.21-3.8 1.21-8.439.244-12.92a35.139 35.139 0 01-1.044-7.027c.109-2.374.459-4.73 1.044-7.035.96-4.483 1.965-9.119-.244-12.914-2.288-3.934-6.894-5.39-11.35-6.796a33.106 33.106 0 01-6.408-2.498 31.29 31.29 0 01-5.135-4.143C45.518 3.457 41.77 0 37 0c-4.77 0-8.517 3.457-11.824 6.51a31.298 31.298 0 01-5.134 4.144 33.092 33.092 0 01-6.407 2.492c-4.455 1.405-9.062 2.862-11.35 6.796-2.209 3.801-1.21 8.44-.243 12.92a35.05 35.05 0 011.042 7.035A35.125 35.125 0 012.04 46.93c-.96 4.483-1.965 9.119.244 12.914a13.574 13.574 0 007.43 5.467L.323 77.317a1.53 1.53 0 00.272 2.153c.323.25.732.362 1.138.31l11.022-1.37 2.721 9.478A1.539 1.539 0 0016.96 89c.476 0 .925-.218 1.218-.592l9.845-12.605A14.287 14.287 0 0037 79.793a14.287 14.287 0 008.978-3.99l9.845 12.6a1.544 1.544 0 001.511.57 1.54 1.54 0 001.189-1.085l2.72-9.476 11.023 1.37a1.54 1.54 0 001.722-1.331 1.53 1.53 0 00-.313-1.133zm-56.069 6.82l-2.249-7.836a1.542 1.542 0 00-1.673-1.1l-8.633 1.074 7.738-9.9.852.271a33.095 33.095 0 016.401 2.492 31.291 31.291 0 015.135 4.143l.53.488-8.1 10.367zM37 76.723c-3.561 0-6.556-2.762-9.73-5.69a33.946 33.946 0 00-5.686-4.553 35.837 35.837 0 00-7.02-2.762c-4.074-1.287-7.923-2.502-9.613-5.409-1.612-2.776-.78-6.644.103-10.741a37.415 37.415 0 001.113-7.672 37.4 37.4 0 00-1.111-7.673c-.883-4.095-1.716-7.964-.103-10.741 1.695-2.907 5.539-4.122 9.613-5.41a35.849 35.849 0 007.018-2.761 33.95 33.95 0 005.685-4.553c3.175-2.928 6.17-5.69 9.731-5.69s6.557 2.762 9.73 5.69a33.948 33.948 0 005.686 4.553 35.837 35.837 0 007.02 2.762c4.074 1.287 7.923 2.502 9.613 5.409 1.613 2.776.78 6.644-.103 10.741a37.414 37.414 0 00-1.113 7.673c.103 2.588.476 5.16 1.111 7.672.883 4.095 1.716 7.964.103 10.741-1.695 2.907-5.539 4.122-9.613 5.41a35.849 35.849 0 00-7.018 2.761 33.95 33.95 0 00-5.685 4.553c-3.174 2.928-6.17 5.69-9.731 5.69zm23.323-1.522a1.542 1.542 0 00-1.672 1.1l-2.257 7.835-8.1-10.365.53-.488a31.298 31.298 0 015.134-4.145 33.094 33.094 0 016.407-2.492l.852-.271 7.74 9.9-8.634-1.074z" fill="#FF9F00"/><path d="M37 12.276c-15.326 0-27.75 12.366-27.75 27.62 0 15.255 12.424 27.621 27.75 27.621s27.75-12.366 27.75-27.62C64.731 24.649 52.317 12.294 37 12.276zm0 52.172c-13.623 0-24.666-10.992-24.666-24.551 0-13.56 11.043-24.552 24.666-24.552 13.623 0 24.666 10.992 24.666 24.552C61.65 53.45 50.616 64.432 37 64.448z" fill="#FF9F00"/><path d="M54.787 33.487a3.088 3.088 0 00-2.49-1.263h-9.439l-2.929-8.941a3.086 3.086 0 00-5.858 0l-2.921 8.941h-9.446a3.076 3.076 0 00-3.085 3.068c0 .982.471 1.904 1.269 2.482l7.64 5.524-2.918 8.942a3.066 3.066 0 001.979 3.867c.94.304 1.967.142 2.766-.436L37 50.148l7.642 5.524a3.05 3.05 0 003.626 0 3.017 3.017 0 001.12-3.43l-2.92-8.944 7.641-5.524a3.06 3.06 0 00.678-4.287zM43.75 41.472a1.53 1.53 0 00-.56 1.718l3.266 10.001-8.548-6.18a1.547 1.547 0 00-1.812 0l-8.548 6.18L30.81 43.19a1.53 1.53 0 00-.56-1.715l-8.546-6.18h10.565a1.54 1.54 0 001.466-1.061L37 24.23l3.265 10c.207.632.798 1.06 1.466 1.06l10.565.002-8.547 6.18z" fill="#FF9F00"/></svg>