<svg width="62" height="74" fill="none" xmlns="http://www.w3.org/2000/svg"><path d="M30.695 74c16.735-.075 30.355-13.485 30.689-30.216.335-16.731-12.737-30.676-29.456-31.42V1.234a1.233 1.233 0 00-2.466 0v11.13C12.744 13.108-.328 27.053.006 43.784.341 60.515 13.961 73.924 30.696 74zm0-46.867c.681 0 1.233-.552 1.233-1.233v-.89a2.467 2.467 0 11-2.466 0v.89c0 .681.552 1.233 1.233 1.233zm-1.233-12.302v7.544a4.933 4.933 0 102.466 0v-7.544c15.412.67 27.463 13.534 27.127 28.957-.335 15.422-12.934 27.75-28.36 27.75S2.671 59.21 2.335 43.788C2 28.364 14.05 15.502 29.463 14.83z" fill="#FF9F00"/><path d="M22.556 61.42a1.233 1.233 0 001.726-.247l14.8-19.733a1.233 1.233 0 00-1.973-1.48l-14.8 19.733a1.233 1.233 0 00.247 1.727zm1.972-12.087a4.933 4.933 0 100-9.866 4.933 4.933 0 000 9.866zm0-7.4a2.466 2.466 0 110 4.933 2.466 2.466 0 010-4.933zm7.4 14.8a4.934 4.934 0 109.868 0 4.934 4.934 0 00-9.868 0zm7.4 0a2.466 2.466 0 11-4.932 0 2.466 2.466 0 014.932 0z" fill="#FF9F00"/></svg>