<svg width="61" height="61" viewBox="0 0 61 61" fill="none" xmlns="http://www.w3.org/2000/svg">
<path d="M22.1516 6.90509C13.5508 6.90509 6.55347 13.9024 6.55347 22.5033C6.55318 26.9676 8.43902 30.9995 11.4552 33.8454C11.5066 33.9011 11.5618 33.9534 11.6222 34.0008C14.3989 36.5458 18.0967 38.1013 22.1514 38.1013C26.2061 38.1013 29.9038 36.5457 32.6807 34.0008C32.7411 33.9534 32.7963 33.9009 32.8476 33.8454C35.8638 30.9995 37.7497 26.9676 37.7497 22.5033C37.7497 13.9024 30.7523 6.90509 22.1516 6.90509ZM22.1514 35.2107C19.1823 35.2107 16.4482 34.187 14.2826 32.4743C15.8169 29.5718 18.8065 27.7456 22.1514 27.7456C25.4963 27.7456 28.4859 29.5718 30.0203 32.4743C27.8546 34.187 25.1205 35.2107 22.1514 35.2107ZM19.1092 21.8129V20.6909C19.1092 19.0135 20.4739 17.6487 22.1513 17.6487C23.8287 17.6487 25.1934 19.0133 25.1934 20.6909V21.8129C25.1934 23.4902 23.8287 24.855 22.1513 24.855C20.4739 24.855 19.1092 23.4903 19.1092 21.8129ZM32.1343 30.3573C30.8114 28.2473 28.8757 26.6381 26.6102 25.7202C27.5267 24.6756 28.0841 23.3085 28.0841 21.8131V20.6911C28.0841 17.4196 25.4227 14.7582 22.1514 14.7582C18.8801 14.7582 16.2187 17.4196 16.2187 20.6911V21.8131C16.2187 23.3085 16.7762 24.6756 17.6926 25.7202C15.4271 26.6382 13.4914 28.2473 12.1685 30.3573C10.4629 28.1941 9.44395 25.4655 9.44395 22.5033C9.4438 15.4963 15.1444 9.79572 22.1514 9.79572C29.1583 9.79572 34.8589 15.4963 34.8589 22.5033C34.8589 25.4655 33.84 28.1941 32.1343 30.3573Z" fill="#FF9F00"/>
<path d="M0 22.5021C0 34.9096 10.0943 45.004 22.5019 45.004C29.6754 45.004 36.0759 41.6298 40.1991 36.3852L56.9741 53.1603C58.0255 54.2118 58.0255 55.9227 56.9741 56.9744C56.4647 57.4837 55.7875 57.7642 55.0671 57.7642C54.3468 57.7642 53.6695 57.4837 53.1602 56.9742L44.5808 48.3948C44.0164 47.8304 43.1012 47.8304 42.5367 48.3948C41.9725 48.9592 41.9725 49.8744 42.5367 50.4388L51.1161 59.018C52.1714 60.0737 53.5747 60.6548 55.0671 60.6548C56.5596 60.6548 57.9628 60.0737 59.0182 59.0183C60.1074 57.929 60.6521 56.4981 60.6521 55.0673C60.6521 53.6364 60.1074 52.2055 59.0182 51.1162L41.8613 33.9593C43.8563 30.6013 45.004 26.6835 45.004 22.5021C45.004 10.0943 34.9096 0.000137329 22.5021 0.000137329C10.0945 0.000137329 0 10.0945 0 22.5021ZM42.1132 22.5021C42.1132 33.3157 33.3158 42.1135 22.5019 42.1135C11.6882 42.1135 2.89063 33.3159 2.89063 22.5021C2.89063 11.6882 11.6882 2.89076 22.5019 2.89076C33.3156 2.89076 42.1132 11.6884 42.1132 22.5021Z" fill="#FF9F00"/>
</svg>
