<svg width="74" height="74" viewBox="0 0 74 74" fill="none" xmlns="http://www.w3.org/2000/svg">
<path d="M14.2596 25.8621C13.8068 26.7676 12.8966 27.3308 11.883 27.3308C10.8693 27.3308 9.95911 26.7676 9.50637 25.8621L9.3816 25.6114L7.25574 26.6749L7.38051 26.9256C8.23846 28.6415 9.96387 29.7074 11.883 29.7074C13.8021 29.7074 15.5275 28.6415 16.3854 26.9244L16.5102 26.6737L14.3843 25.6102L14.2596 25.8621Z" fill="#FF9F00"/>
<path d="M74 15.4859L65.9505 4.75319H40.9962L39.5026 6.74359C35.0548 3.89524 29.9368 2.37659 24.612 2.37659H15.7735C14.098 0.901917 11.9079 0 9.50638 0C4.2648 0 0 4.2648 0 9.50638C0 13.3363 2.28153 16.6362 5.55291 18.1405C4.71516 18.8785 4.06992 19.8374 3.75502 20.9604C2.58336 25.123 1.1883 31.049 1.1883 35.6489V36.577L5.94148 37.7653V46.3436C5.94148 50.9292 9.67393 54.6617 14.2596 54.6617H21.3893V57.2735L18.5862 57.895C13.9387 58.9288 10.6947 62.9738 10.6947 67.7329V68.9212H46.7595C47.741 71.6864 50.3755 73.6744 53.4734 73.6744C57.4054 73.6744 60.6031 70.4767 60.6031 66.5446V55.85C60.6031 54.2065 59.4802 52.8329 57.9651 52.4229C58.1303 52.0118 58.2265 51.5661 58.2265 51.0968V46.9437C67.0758 44.7976 73.6744 36.8301 73.6744 27.3308C73.6744 24.2282 72.9472 21.1576 71.5806 18.3901L74 15.4859ZM66.5446 27.3308C66.5446 34.5378 60.6804 40.4021 53.4734 40.4021C46.2663 40.4021 40.4021 34.5378 40.4021 27.3308C40.4021 26.4669 40.4983 25.6078 40.673 24.7582L51.7278 38.0255H55.219L66.2737 24.7582C66.4484 25.6078 66.5446 26.4669 66.5446 27.3308ZM48.9816 52.4229C47.4665 52.8329 46.3436 54.2065 46.3436 55.85V59.5467C45.0947 58.2705 43.4394 57.3995 41.5904 57.1333V52.8198L42.3735 52.1246C44.2272 50.4753 45.8492 48.5906 47.2336 46.5349C47.7196 46.6929 48.2187 46.8225 48.7202 46.9437V51.0968C48.7202 51.5661 48.8164 52.0118 48.9816 52.4229ZM40.7942 50.347L40.6338 50.4895L34.8017 41.7413C35.656 40.881 36.3369 39.8816 36.8669 38.805C38.9048 41.7461 41.7057 44.1084 44.977 45.633C43.7673 47.3572 42.3711 48.9448 40.7942 50.347ZM57.851 16.6362L53.4734 32.3965L49.0957 16.6362H57.851ZM49.6756 14.2596L53.4734 8.1838L57.2712 14.2596H49.6756ZM65.4454 8.04121L70.1095 14.2596H61.5585L65.4454 8.04121ZM59.4148 13.2055L55.6171 7.12978H63.2126L59.4148 13.2055ZM47.5319 13.2055L43.7341 7.12978H51.3297L47.5319 13.2055ZM45.3882 14.2596H36.8372L41.5013 8.04121L45.3882 14.2596ZM36.9976 16.6362H46.6288L51.4437 33.971L36.9976 16.6362ZM55.503 33.971L60.318 16.6362H69.9491L55.503 33.971ZM2.37659 9.50638C2.37659 5.5743 5.5743 2.37659 9.50638 2.37659C13.4384 2.37659 16.6362 5.5743 16.6362 9.50638H19.0128C19.0128 7.77384 18.5398 6.153 17.727 4.75319H24.612C29.4199 4.75319 34.0435 6.10666 38.0742 8.64843L32.9455 15.4859L35.3661 18.3901C33.9995 21.1576 33.2723 24.2282 33.2723 27.3308C33.2723 27.7562 33.3103 28.171 33.3365 28.5892C31.8808 28.4288 30.3206 28.8126 29.1691 29.7811L27.0076 21.1374C26.3457 18.4875 23.9751 16.6362 21.2432 16.6362H9.50638C5.5743 16.6362 2.37659 13.4384 2.37659 9.50638ZM32.084 66.5446H13.1604C13.6345 63.4384 15.9446 60.918 19.1007 60.2169L23.7659 59.1796V54.6617H26.1425V52.2851H14.2596C11.391 52.2851 8.99065 50.24 8.4381 47.5319H11.3221C15.0533 47.5319 18.4067 45.4595 20.0751 42.1216L17.9492 41.058C16.6861 43.5855 14.1467 45.1553 11.3221 45.1553H8.31808V35.9091L3.58509 34.7268C3.7669 30.2873 5.1786 24.6762 6.04249 21.6032C6.47028 20.0775 7.88078 19.0128 9.47191 19.0128H21.2432C22.8818 19.0128 24.3042 20.1238 24.7023 21.7126L27.8751 34.4083L30.5036 31.7798C31.0728 31.2094 31.8369 30.8957 32.7162 30.8957C33.0358 30.8957 33.3377 30.9623 33.6312 31.0597C33.9687 32.86 34.5533 34.5699 35.3352 36.1682C34.9371 37.65 34.1766 39.0047 33.0893 40.0919L31.7418 41.4395L39.2138 52.6451V57.1333C35.1902 57.7132 32.084 61.1747 32.084 65.3563V66.5446ZM34.4606 66.5446V65.3563C34.4606 62.0802 37.126 59.4148 40.4021 59.4148C43.6782 59.4148 46.3436 62.0802 46.3436 65.3563V66.5446H34.4606ZM58.2265 66.5446C58.2265 69.166 56.0947 71.2978 53.4734 71.2978C50.852 71.2978 48.7202 69.166 48.7202 66.5446V65.3563V55.85C48.7202 55.194 49.2525 54.6617 49.9085 54.6617H52.2851H54.6617H57.0383C57.6942 54.6617 58.2265 55.194 58.2265 55.85V66.5446ZM55.85 51.0968C55.85 51.7527 55.3176 52.2851 54.6617 52.2851H52.2851C51.6291 52.2851 51.0968 51.7527 51.0968 51.0968V47.3798C51.8775 47.4713 52.6677 47.5319 53.4734 47.5319C54.279 47.5319 55.0692 47.4713 55.85 47.3798V51.0968ZM71.2978 27.3308C71.2978 37.1592 63.3018 45.1553 53.4734 45.1553C43.645 45.1553 35.6489 37.1592 35.6489 27.3308C35.6489 24.9519 36.1361 22.5943 37.0535 20.4149L38.8193 22.5337C38.3024 24.0987 38.0255 25.7076 38.0255 27.3308C38.0255 35.8485 44.9557 42.7787 53.4734 42.7787C61.9911 42.7787 68.9212 35.8485 68.9212 27.3308C68.9212 25.7076 68.6443 24.0987 68.1286 22.5337L69.8944 20.4149C70.8106 22.5943 71.2978 24.9519 71.2978 27.3308Z" fill="#FF9F00"/>
</svg>
