<svg width="74" height="74" viewBox="0 0 74 74" fill="none" xmlns="http://www.w3.org/2000/svg">
<path d="M69.6641 0H18.2109C15.8201 0 13.875 1.9451 13.875 4.33594V9.25C13.875 10.0481 14.5221 10.6953 15.3203 10.6953C16.1186 10.6953 16.7656 10.0481 16.7656 9.25V4.33594C16.7656 3.53899 17.414 2.89062 18.2109 2.89062H69.6641C70.461 2.89062 71.1094 3.53899 71.1094 4.33594V69.6641C71.1094 70.461 70.461 71.1094 69.6641 71.1094H18.2109C17.414 71.1094 16.7656 70.461 16.7656 69.6641V64.9906C16.7656 64.1925 16.1186 63.5453 15.3203 63.5453C14.5221 63.5453 13.875 64.1925 13.875 64.9906V69.6641C13.875 72.0549 15.8201 74 18.2109 74H69.6641C72.0549 74 74 72.0549 74 69.6641V4.33594C74 1.9451 72.0549 0 69.6641 0Z" fill="#FF9F00"/>
<path d="M62.7111 55.7891H28.0236C27.2253 55.7891 26.5783 56.4363 26.5783 57.2344C26.5783 58.0325 27.2253 58.6797 28.0236 58.6797H62.7111C63.5093 58.6797 64.1564 58.0325 64.1564 57.2344C64.1564 56.4363 63.5093 55.7891 62.7111 55.7891Z" fill="#FF9F00"/>
<path d="M62.3113 63H28.6887C27.756 63 27 63.6717 27 64.5C27 65.3283 27.756 66 28.6887 66H62.3113C63.244 66 64 65.3283 64 64.5C64 63.6717 63.244 63 62.3113 63Z" fill="#FF9F00"/>
<path d="M38.1529 12.6851C29.5521 12.6851 22.5548 19.6824 22.5548 28.2833C22.5545 32.7476 24.4404 36.7794 27.4566 39.6254C27.5079 39.681 27.5631 39.7334 27.6235 39.7808C30.4003 42.3258 34.0981 43.8813 38.1528 43.8813C42.2074 43.8813 45.9051 42.3257 48.682 39.7808C48.7424 39.7334 48.7976 39.6809 48.8489 39.6254C51.8652 36.7794 53.751 32.7476 53.751 28.2833C53.751 19.6824 46.7537 12.6851 38.1529 12.6851ZM38.1528 40.9906C35.1837 40.9906 32.4496 39.9669 30.2839 38.2542C31.8183 35.3518 34.8079 33.5256 38.1528 33.5256C41.4977 33.5256 44.4873 35.3518 46.0216 38.2542C43.856 39.9669 41.1219 40.9906 38.1528 40.9906ZM35.1105 27.5929V26.4709C35.1105 24.7935 36.4752 23.4286 38.1526 23.4286C39.8301 23.4286 41.1947 24.7933 41.1947 26.4709V27.5929C41.1947 29.2702 39.8301 30.635 38.1526 30.635C36.4752 30.635 35.1105 29.2703 35.1105 27.5929ZM48.1357 36.1373C46.8128 34.0273 44.8771 32.4181 42.6116 31.5001C43.528 30.4556 44.0855 29.0885 44.0855 27.593V26.471C44.0855 23.1996 41.4241 20.5382 38.1528 20.5382C34.8814 20.5382 32.22 23.1996 32.22 26.471V27.593C32.22 29.0885 32.7775 30.4556 33.694 31.5001C31.4285 32.4182 29.4927 34.0273 28.1698 36.1373C26.4642 33.9741 25.4453 31.2455 25.4453 28.2833C25.4451 21.2763 31.1458 15.5757 38.1528 15.5757C45.1596 15.5757 50.8602 21.2763 50.8602 28.2833C50.8602 31.2455 49.8413 33.9741 48.1357 36.1373Z" fill="#FF9F00"/>
<path d="M38.1528 5.78125C25.7452 5.78125 15.6509 15.8756 15.6509 28.2832C15.6509 35.4567 19.0251 41.8571 24.2697 45.9803L7.49452 62.7553C6.44306 63.8068 4.7321 63.8068 3.68049 62.7553C3.17116 62.246 2.89062 61.5687 2.89062 60.8484C2.89062 60.128 3.17116 59.4508 3.68063 58.9414L12.26 50.3621C12.8244 49.7977 12.8244 48.8825 12.26 48.318C11.6956 47.7537 10.7804 47.7537 10.216 48.318L1.63682 56.8973C0.58116 57.9527 0 59.3559 0 60.8484C0 62.3408 0.58116 63.7441 1.63653 64.7994C2.72586 65.8886 4.15672 66.4334 5.58758 66.4334C7.01844 66.4334 8.4493 65.8886 9.53863 64.7994L26.6955 47.6426C30.0535 49.6375 33.9713 50.7852 38.1528 50.7852C50.5605 50.7852 60.6547 40.6909 60.6547 28.2833C60.6547 15.8757 50.5604 5.78125 38.1528 5.78125ZM38.1528 47.8945C27.3391 47.8945 18.5413 39.097 18.5413 28.2832C18.5413 17.4695 27.339 8.67188 38.1528 8.67188C48.9666 8.67188 57.7641 17.4695 57.7641 28.2832C57.7641 39.0969 48.9665 47.8945 38.1528 47.8945Z" fill="#FF9F00"/>
</svg>
