<svg width="74" height="74" viewBox="0 0 74 74" fill="none" xmlns="http://www.w3.org/2000/svg">
<path d="M72.7673 3.22896e-08C72.7671 3.22896e-08 72.7668 3.22896e-08 72.7667 3.22896e-08H1.23333C0.552379 -0.000154134 0.000154167 0.551763 0 1.23272C0 1.23287 0 1.23318 0 1.23333V25.9H2.46667V2.46667H71.5333V29.6H28.3667V32.0667H72.7667C73.4476 32.0668 73.9998 31.5149 74 30.834C74 30.8338 74 30.8335 74 30.8333V1.23333C74.0002 0.552379 73.4482 0.000154199 72.7673 3.22896e-08Z" fill="#FF9F00"/>
<path d="M65.3667 6.16669H40.7V8.63335H65.3667V6.16669Z" fill="#FF9F00"/>
<path d="M69.0667 13.5667H44.4V16.0333H69.0667V13.5667Z" fill="#FF9F00"/>
<path d="M64.1333 20.9667H39.4667V23.4333H64.1333V20.9667Z" fill="#FF9F00"/>
<path d="M39.3683 10.6335C38.5239 8.6039 36.1942 7.64314 34.1647 8.48751C34.13 8.502 34.0955 8.5168 34.0613 8.53222L24.0608 13.7199C24.4552 12.9025 24.6622 12.0074 24.6667 11.1C24.6667 7.69432 21.9057 4.93335 18.5 4.93335C15.0943 4.93335 12.3333 7.69432 12.3333 11.1C12.338 12.4386 12.7824 13.7387 13.5983 14.8H13.5469C10.0461 14.8235 6.921 16.9998 5.68505 20.2754L2.39267 31.6235C1.60888 33.6594 2.62392 35.9454 4.66 36.7291C5.58839 37.0865 6.61745 37.0805 7.54168 36.7122C8.60358 36.2844 9.42991 35.4204 9.81024 34.3406L11.1 30.236V48.0858C10.0387 47.2701 8.73863 46.8257 7.4 46.8209C3.99939 46.8158 1.23842 49.5685 1.23333 52.9692C1.23087 54.6347 1.90303 56.23 3.09675 57.3915C1.20235 58.3593 0.00740003 60.3043 3.22896e-08 62.4315V72.7667C-0.000154134 73.4476 0.551763 73.9999 1.23272 74C1.23287 74 1.23318 74 1.23333 74H13.5667C14.2476 74.0002 14.7998 73.4483 14.8 72.7673C14.8 72.7671 14.8 72.7668 14.8 72.7667V62.4315C14.794 60.6834 13.9818 59.036 12.5991 57.9667H21.9344C20.5515 59.036 19.7393 60.6834 19.7335 62.4315V72.7667C19.7333 73.4476 20.2852 73.9999 20.9662 74C20.9664 74 20.9667 74 20.9668 74H33.3002C33.9811 74.0002 34.5333 73.4483 34.5335 72.7673C34.5335 72.7671 34.5335 72.7668 34.5335 72.7667V62.4315C34.5261 60.3043 33.3311 58.3593 31.4367 57.3915C33.8718 55.0147 33.9191 51.1138 31.5423 48.6788C30.0787 47.1792 27.9532 46.5263 25.9002 46.9456V21.7158L37.2223 15.8369C39.2518 14.9927 40.2125 12.663 39.3683 10.6335ZM18.5 7.40002C20.5435 7.40002 22.2 9.05654 22.2 11.1C22.2 13.1435 20.5435 14.8 18.5 14.8C16.4574 14.7979 14.8022 13.1426 14.8 11.1C14.8 9.05654 16.4565 7.40002 18.5 7.40002ZM7.4 49.2876C9.44348 49.2876 11.1 50.9441 11.1 52.9876C11.1 55.031 9.44348 56.6876 7.4 56.6876C5.35652 56.6876 3.7 55.031 3.7 52.9876C3.70216 50.945 5.35745 49.2899 7.4 49.2876ZM12.3333 71.5333H2.46667V62.4315C2.46913 60.6476 3.91475 59.2022 5.69877 59.2H9.10123C10.8851 59.2022 12.3309 60.6476 12.3333 62.4315V71.5333ZM32.0667 62.4315V71.5333H22.2V62.4315C22.2025 60.6476 23.6481 59.2022 25.4321 59.2H28.8346C30.6186 59.2022 32.0642 60.6476 32.0667 62.4315ZM27.1333 49.2876C29.1759 49.2897 30.8312 50.945 30.8333 52.9876C30.8333 55.031 29.1768 56.6876 27.1333 56.6876C25.0899 56.6876 23.4333 55.031 23.4333 52.9876C23.4333 50.9441 25.0899 49.2876 27.1333 49.2876ZM37.1115 12.691C36.9464 13.1147 36.6073 13.4472 36.1805 13.604L24.0989 19.8718C23.69 20.0839 23.4333 20.5062 23.4333 20.9667V48.0858C21.1231 49.794 20.3229 52.8855 21.5143 55.5H19.7333V34.5333H17.2667V55.5H13.0191C13.37 54.7246 13.5548 53.8843 13.562 53.0334H13.5667V22.2C13.5665 21.5188 13.0141 20.9667 12.333 20.9668C11.7945 20.967 11.3183 21.3165 11.1567 21.8303L7.474 33.5493C7.19496 34.3189 6.34473 34.7167 5.57513 34.4375C5.52117 34.4179 5.46829 34.3952 5.4168 34.3695C4.70532 34.0018 4.40331 33.1434 4.72798 32.4111L8.02021 21.063C8.90806 18.7829 11.0998 17.2773 13.5468 17.2667H22.2796C22.4772 17.267 22.6721 17.2194 22.8475 17.1282L35.1056 10.7653C35.841 10.4585 36.6886 10.7724 37.0466 11.4844C37.2363 11.8596 37.2599 12.2974 37.1115 12.691Z" fill="#FF9F00"/>
<path d="M51.1699 57.3915C53.6093 55.0149 53.6602 51.1106 51.2835 48.6712C48.9069 46.2318 45.0026 46.1809 42.5633 48.5576C40.1239 50.9342 40.073 54.8385 42.4496 57.2779C42.4871 57.3163 42.525 57.3542 42.5634 57.3915C40.6692 58.3593 39.4741 60.3043 39.4667 62.4315V72.7667C39.4665 73.4476 40.0184 73.9999 40.6994 74C40.6995 74 40.6999 74 40.7 74H53.0333C53.7143 74.0002 54.2665 73.4483 54.2667 72.7673C54.2667 72.7671 54.2667 72.7668 54.2667 72.7667V62.4315C54.2593 60.3043 53.0643 58.3593 51.1699 57.3915ZM46.8667 49.2876C48.9102 49.2876 50.5667 50.9441 50.5667 52.9876C50.5667 55.031 48.9102 56.6876 46.8667 56.6876C44.8232 56.6876 43.1667 55.031 43.1667 52.9876C43.1688 50.945 44.8241 49.2899 46.8667 49.2876ZM51.8 71.5333H41.9333V62.4315C41.9358 60.6476 43.3814 59.2022 45.1654 59.2H48.5679C50.3518 59.2022 51.7975 60.6476 51.8 62.4315V71.5333Z" fill="#FF9F00"/>
<path d="M70.9032 57.3915C73.3426 55.0149 73.3935 51.1106 71.0169 48.6712C68.6402 46.2318 64.736 46.1809 62.2966 48.5576C59.8572 50.9342 59.8063 54.8385 62.183 57.2779C62.2204 57.3163 62.2584 57.3542 62.2967 57.3915C60.4025 58.3593 59.2074 60.3043 59.2 62.4315V72.7667C59.1998 73.4476 59.7518 73.9999 60.4327 74C60.4329 74 60.4332 74 60.4333 74H72.7667C73.4476 74.0002 73.9998 73.4483 74 72.7673C74 72.7671 74 72.7668 74 72.7667V62.4315C73.9926 60.3043 72.7976 58.3593 70.9032 57.3915ZM66.6 49.2876C68.6435 49.2876 70.3 50.9441 70.3 52.9876C70.3 55.031 68.6435 56.6876 66.6 56.6876C64.5565 56.6876 62.9 55.031 62.9 52.9876C62.9022 50.945 64.5574 49.2899 66.6 49.2876ZM71.5333 71.5333H61.6667V62.4315C61.6691 60.6476 63.1148 59.2022 64.8988 59.2H68.3012C70.0851 59.2022 71.5309 60.6476 71.5333 62.4315V71.5333Z" fill="#FF9F00"/>
</svg>
