<svg width="74" height="74" viewBox="0 0 74 74" fill="none" xmlns="http://www.w3.org/2000/svg">
<path d="M37 55.1729C32.9136 55.1729 29.6 51.644 29.6 47.2911C29.6 42.9386 32.9136 39.4092 37 39.4092C41.0864 39.4092 44.4 42.9386 44.4 47.2911C44.3957 51.6425 41.0854 55.1683 37 55.1729ZM37 42.0365C34.2756 42.0365 32.0667 44.3893 32.0667 47.2911C32.0667 50.1929 34.2756 52.5456 37 52.5456C39.7244 52.5456 41.9333 50.1929 41.9333 47.2911C41.9333 44.3893 39.7244 42.0365 37 42.0365Z" fill="#FF9F00"/>
<path d="M14.8 15.7638C10.7136 15.7638 7.39999 12.2349 7.39999 7.88195C7.39999 3.5295 10.7136 0.00012207 14.8 0.00012207C18.8864 0.00012207 22.2 3.5295 22.2 7.88195C22.1957 12.2334 18.8854 15.7592 14.8 15.7638ZM14.8 2.6274C12.0756 2.6274 9.86666 4.98014 9.86666 7.88195C9.86666 10.7838 12.0756 13.1365 14.8 13.1365C17.5244 13.1365 19.7333 10.7838 19.7333 7.88195C19.7333 4.98014 17.5244 2.6274 14.8 2.6274Z" fill="#FF9F00"/>
<path d="M59.2 15.7638C55.1136 15.7638 51.8 12.2349 51.8 7.88195C51.8 3.5295 55.1136 0.00012207 59.2 0.00012207C63.2864 0.00012207 66.6 3.5295 66.6 7.88195C66.5957 12.2334 63.2854 15.7592 59.2 15.7638ZM59.2 2.6274C56.4756 2.6274 54.2667 4.98014 54.2667 7.88195C54.2667 10.7838 56.4756 13.1365 59.2 13.1365C61.9244 13.1365 64.1333 10.7838 64.1333 7.88195C64.1333 4.98014 61.9244 2.6274 59.2 2.6274Z" fill="#FF9F00"/>
<path d="M19.0695 62.4753C10.9709 56.6897 5.8015 47.2761 5.03693 36.921L7.49637 36.7106C8.20264 46.2688 12.9741 54.9568 20.4502 60.296L19.0695 62.4753Z" fill="#FF9F00"/>
<path d="M54.363 62.8731L53.0261 60.6666C60.7359 55.3448 65.7068 46.5311 66.4979 36.782L68.9568 36.999C68.1002 47.56 62.7145 57.108 54.363 62.8731Z" fill="#FF9F00"/>
<path d="M25.1716 5.24586L24.1844 2.8377C32.244 -0.892316 41.3851 -0.947222 49.4836 2.68529L48.523 5.10526C41.0478 1.75292 32.6111 1.80423 25.1725 5.24586H25.1716Z" fill="#FF9F00"/>
<path d="M20.9667 15.7638H8.63333C3.86766 15.7694 0.00529949 19.8833 0 24.9593V31.1339L3.41865 32.4588C10.7719 35.3016 18.8281 35.3016 26.1814 32.4588L29.6 31.1339V24.9593C29.5947 19.8833 25.7323 15.7694 20.9667 15.7638ZM27.1333 29.2943L25.3373 29.9896C24.71 30.2323 24.0712 30.4293 23.4333 30.6274V22.332H20.9667V31.274C16.8976 32.1576 12.7024 32.1576 8.63333 31.274V22.332H6.16667V30.6274C5.5288 30.4293 4.88997 30.2338 4.26271 29.9896L2.46667 29.2943V24.9593C2.471 21.3334 5.22914 18.3957 8.63333 18.3911H20.9667C24.3709 18.3957 27.129 21.3334 27.1333 24.9593V29.2943Z" fill="#FF9F00"/>
<path d="M65.3667 15.7638H53.0333C48.2676 15.7694 44.4053 19.8833 44.4 24.9593V31.1339L47.8186 32.4588C55.1719 35.3016 63.2281 35.3016 70.5813 32.4588L74 31.1339V24.9593C73.9947 19.8833 70.1323 15.7694 65.3667 15.7638ZM71.5333 29.2943L69.7373 29.9896C69.11 30.2323 68.4712 30.4293 67.8333 30.6274V22.332H65.3667V31.274C61.2976 32.1576 57.1024 32.1576 53.0333 31.274V22.332H50.5667V30.6274C49.9288 30.4293 49.29 30.2338 48.6627 29.9896L46.8667 29.2943V24.9593C46.871 21.3334 49.6291 18.3957 53.0333 18.3911H65.3667C68.7709 18.3957 71.529 21.3334 71.5333 24.9593V29.2943Z" fill="#FF9F00"/>
<path d="M43.1667 55.1729H30.8333C26.0677 55.1786 22.2053 59.2924 22.2 64.3684V70.543L25.6187 71.8679C32.9719 74.7107 41.0281 74.7107 48.3814 71.8679L51.8 70.543V64.3684C51.7947 59.2924 47.9324 55.1786 43.1667 55.1729ZM49.3333 68.7034L47.5373 69.3987C46.91 69.6414 46.2712 69.8384 45.6333 70.0365V61.7411H43.1667V70.6831C39.0976 71.5667 34.9024 71.5667 30.8333 70.6831V61.7411H28.3667V70.0365C27.7288 69.8384 27.09 69.6429 26.4627 69.3987L24.6667 68.7034V64.3684C24.671 60.7425 27.4292 57.8048 30.8333 57.8002H43.1667C46.5709 57.8048 49.329 60.7425 49.3333 64.3684V68.7034Z" fill="#FF9F00"/>
</svg>
