<svg width="50" height="74" viewBox="0 0 50 74" fill="none" xmlns="http://www.w3.org/2000/svg">
<path d="M45.6303 64.3086V58.7068C45.6333 54.7454 43.9013 50.9816 40.8915 48.4059L28.7942 38.0346C28.5208 37.8003 28.3636 37.4583 28.3636 37.0988V36.9012C28.363 36.5411 28.5202 36.1985 28.7942 35.9642L40.8915 25.5953C43.9013 23.019 45.6327 19.2552 45.6303 15.2932V9.69143C48.0331 9.07295 49.6001 6.76346 49.2869 4.30222C48.9738 1.84037 46.8781 -0.00300738 44.397 3.68346e-06H4.93031C2.44919 -0.00300738 0.353485 1.84037 0.0397315 4.30222C-0.273419 6.76346 1.29414 9.07295 3.69697 9.69143V15.2932C3.69396 19.2546 5.42533 23.0184 8.43519 25.5941L20.5331 35.9654C20.8065 36.1997 20.9636 36.5417 20.9636 36.9012V37.0988C20.9636 37.4589 20.8065 37.8015 20.5331 38.0358L8.43519 48.4047C5.42593 50.981 3.69456 54.7448 3.69697 58.7068V64.3086C1.29414 64.927 -0.273419 67.2365 0.0397315 69.6978C0.353485 72.1596 2.44919 74.003 4.93031 74H44.397C46.8781 74.003 48.9738 72.1596 49.2869 69.6978C49.6001 67.2365 48.0331 64.927 45.6303 64.3086ZM6.16364 60.2238C8.90732 59.8769 11.5745 59.0784 14.0569 57.8607C17.3449 56.2154 20.9877 55.4042 24.6636 55.5C28.3389 55.4042 31.9817 56.2154 35.2704 57.8607C37.7527 59.0784 40.4199 59.8769 43.1636 60.2238V64.1333H6.16364V60.2238ZM2.46364 4.93334C2.46364 3.57113 3.5681 2.46667 4.93031 2.46667H44.397C45.7592 2.46667 46.8636 3.57113 46.8636 4.93334C46.8636 6.29554 45.7592 7.4 44.397 7.4H4.93031C3.5681 7.4 2.46364 6.29554 2.46364 4.93334ZM6.16364 9.86667H43.1636V15.2932C43.1642 17.2902 42.6265 19.2504 41.6057 20.9667H7.72217C6.70081 19.2504 6.16244 17.2902 6.16364 15.2932V9.86667ZM10.0401 50.2782L22.1374 39.9081C22.9582 39.2053 23.4303 38.1791 23.4303 37.0988V36.9012C23.4309 35.8215 22.9588 34.7947 22.1374 34.0931L10.0401 23.7206C9.9341 23.6309 9.84015 23.5285 9.73778 23.4333H39.5871C39.4835 23.5285 39.3908 23.6309 39.2836 23.7218L27.1857 34.0919C26.3667 34.7953 25.8958 35.8215 25.897 36.9012V37.0988C25.8964 38.1785 26.3685 39.2053 27.1893 39.9069L39.2872 50.2794C41.4895 52.1674 42.8625 54.8454 43.1106 57.736C40.7325 57.3903 38.4236 56.6719 36.2689 55.6072C32.6671 53.8192 28.6834 52.9358 24.6636 53.0333C20.6433 52.9358 16.6602 53.8192 13.0578 55.6072C10.9037 56.6719 8.59478 57.3903 6.21663 57.736C6.46475 54.8454 7.83779 52.1674 10.0401 50.2782ZM44.397 71.5333H4.93031C3.5681 71.5333 2.46364 70.4289 2.46364 69.0667C2.46364 67.7045 3.5681 66.6 4.93031 66.6H44.397C45.7592 66.6 46.8636 67.7045 46.8636 69.0667C46.8636 70.4289 45.7592 71.5333 44.397 71.5333Z" fill="#FF9F00"/>
<path d="M23.4303 39.4667H25.897V41.9333H23.4303V39.4667Z" fill="#FF9F00"/>
<path d="M23.4303 44.4H25.897V46.8667H23.4303V44.4Z" fill="#FF9F00"/>
<path d="M23.4303 49.3333H25.897V51.8H23.4303V49.3333Z" fill="#FF9F00"/>
</svg>
