<svg width="74" height="89" viewBox="0 0 74 89" fill="none" xmlns="http://www.w3.org/2000/svg">
<path d="M73.6755 77.318L64.2946 65.3137C67.3343 64.4097 69.9601 62.4747 71.716 59.8448C73.9252 56.0439 72.9262 51.4052 71.9596 46.9245C71.3751 44.6228 71.0254 42.2681 70.9159 39.8965C71.025 37.5229 71.3746 35.1661 71.9596 32.8625C72.9201 28.3787 73.9252 23.7431 71.716 19.9483C69.4283 16.0139 64.8219 14.5576 60.3666 13.1521C58.1487 12.5438 56.0008 11.7066 53.958 10.6539C52.1042 9.45702 50.3829 8.06831 48.8228 6.51081C45.5176 3.45719 41.7699 0 37 0C32.2302 0 28.4825 3.45719 25.1757 6.50928C23.6162 8.06716 21.8953 9.45644 20.0421 10.6539C17.9995 11.7045 15.8522 12.5396 13.6351 13.1459C9.17978 14.5515 4.57339 16.0077 2.28561 19.9421C0.0764496 23.7431 1.07543 28.3818 2.04203 32.8625C2.6265 35.1663 2.97568 37.5229 3.08417 39.8965C2.9751 42.2702 2.62554 44.627 2.04049 46.9306C1.08005 51.4144 0.0749081 56.05 2.28407 59.8448C4.04229 62.4757 6.67097 64.4101 9.71318 65.3122L0.324652 77.3165C-0.19796 77.9855 -0.0767501 78.9495 0.595594 79.4697C0.918565 79.7196 1.32787 79.8315 1.7337 79.7808L12.7564 78.4105L15.4773 87.8875C15.6367 88.443 16.0961 88.8623 16.6659 88.9724C16.7625 88.9906 16.8606 89 16.9588 89C17.4348 89.0004 17.8844 88.7817 18.1767 88.4077L28.0216 75.8035C30.4443 78.151 33.6266 79.5652 37 79.7931C40.3735 79.5652 43.5558 78.151 45.9785 75.8035L55.8234 88.4031C56.1147 88.7788 56.5643 88.9992 57.0413 89C57.1395 89 57.2376 88.9906 57.3342 88.9724C57.904 88.8623 58.3634 88.443 58.5228 87.8875L61.2437 78.4121L72.2664 79.7824C73.1112 79.8879 73.882 79.2917 73.988 78.4508C74.0389 78.0469 73.9265 77.6395 73.6755 77.318ZM17.6063 84.1372L15.3571 76.3022C15.148 75.5754 14.4381 75.1085 13.6844 75.2019L5.05129 76.2761L12.7887 66.3756L13.6413 66.6472C15.8562 67.2539 18.0014 68.089 20.0421 69.1392C21.8959 70.3361 23.6172 71.7248 25.1773 73.2823L25.7076 73.7703L17.6063 84.1372ZM37 76.7241C33.4389 76.7241 30.4435 73.9621 27.2708 71.0343C25.5448 69.3178 23.6382 67.7915 21.5837 66.4815C19.3486 65.3168 16.9957 64.3909 14.5647 63.7194C10.4902 62.432 6.64071 61.2167 4.95109 58.3103C3.33854 55.5345 4.17102 51.666 5.05438 47.569C5.69011 45.0564 6.06318 42.4854 6.16743 39.8965C6.06376 37.3077 5.69126 34.7367 5.05592 32.2241C4.17256 28.1286 3.34008 24.2602 4.95263 21.4828C6.64842 18.5764 10.4917 17.3611 14.5662 16.0737C16.9968 15.402 19.349 14.4761 21.5837 13.3116C23.6376 12.0016 25.5438 10.4751 27.2693 8.75883C30.4435 5.83103 33.4389 3.06897 37 3.06897C40.5612 3.06897 43.5566 5.83103 46.7293 8.75883C48.4553 10.4753 50.3619 12.0016 52.4164 13.3116C54.6515 14.4763 57.0044 15.4022 59.4354 16.0737C63.5099 17.3611 67.3594 18.5764 69.049 21.4828C70.6616 24.2586 69.8291 28.1271 68.9457 32.2241C68.31 34.7367 67.9369 37.3077 67.8327 39.8965C67.9363 42.4854 68.3088 45.0564 68.9442 47.569C69.8275 51.6645 70.66 55.5329 69.0475 58.3103C67.3517 61.2167 63.5084 62.432 59.4339 63.7194C57.0033 64.3911 54.6511 65.317 52.4164 66.4815C50.3625 67.7915 48.4563 69.318 46.7308 71.0343C43.5566 73.9621 40.5612 76.7241 37 76.7241ZM60.3234 75.2019C59.5697 75.1085 58.8598 75.5754 58.6507 76.3022L56.3938 84.1372L48.294 73.7718L48.8244 73.2838C50.3839 71.7259 52.1048 70.3367 53.958 69.1392C56.0007 68.0886 58.1479 67.2535 60.365 66.6472L61.2175 66.3756L68.9565 76.2761L60.3234 75.2019Z" fill="#FF9F00"/>
<path d="M37.0001 12.2759C21.6745 12.2759 9.2507 24.6421 9.2507 39.8966C9.2507 55.151 21.6745 67.5172 37.0001 67.5172C52.3256 67.5172 64.7494 55.151 64.7494 39.8966C64.7317 24.6494 52.3183 12.2937 37.0001 12.2759ZM37.0001 64.4483C23.3774 64.4483 12.334 53.456 12.334 39.8966C12.334 26.3371 23.3774 15.3448 37.0001 15.3448C50.6227 15.3448 61.6662 26.3371 61.6662 39.8966C61.65 53.4495 50.6161 64.4322 37.0001 64.4483Z" fill="#FF9F00"/>
<path d="M54.7874 33.487C54.2074 32.6939 53.2816 32.2245 52.2961 32.2241H42.8583L39.9292 23.2827C39.3975 21.6725 37.6551 20.7963 36.0373 21.3255C35.1068 21.6299 34.3768 22.3565 34.071 23.2827L31.1496 32.2241H21.704C20.0011 32.2234 18.62 33.5965 18.6192 35.2916C18.6186 36.2736 19.0904 37.1964 19.888 37.7744L27.5283 43.2985L24.61 52.2399C24.0835 53.8519 24.9698 55.5834 26.589 56.1072C27.5281 56.411 28.5564 56.2487 29.3551 55.671L37.0001 50.1484L44.6419 55.6725C45.7184 56.4686 47.1914 56.4686 48.2678 55.6725C49.3603 54.8997 49.8151 53.5057 49.3871 52.2414L46.4688 43.2985L54.1091 37.7744C55.486 36.7769 55.7897 34.8573 54.7874 33.487ZM43.7493 41.4725C43.2086 41.8636 42.9826 42.5569 43.1897 43.1895L46.4549 53.1913L37.9065 47.0104C37.3664 46.6201 36.6353 46.6201 36.0951 47.0104L27.5468 53.1913L30.8104 43.1895C31.0168 42.5573 30.791 41.8649 30.2508 41.474L21.704 35.2931H32.2688C32.9367 35.2931 33.5285 34.865 33.7349 34.2328L37.0001 24.231L40.2652 34.2312C40.4716 34.8634 41.0634 35.2916 41.7313 35.2916L52.2961 35.2931L43.7493 41.4725Z" fill="#FF9F00"/>
</svg>
