<svg width="62" height="74" viewBox="0 0 62 74" fill="none" xmlns="http://www.w3.org/2000/svg">
<path d="M30.6951 74C47.43 73.9247 61.0497 60.5152 61.3839 43.7839C61.7187 27.0526 48.6465 13.1084 31.9284 12.364V1.23333C31.9284 0.55223 31.3762 0 30.6951 0C30.014 0 29.4618 0.55223 29.4618 1.23333V12.364C12.7437 13.1084 -0.32854 27.0526 0.00629072 43.7839C0.341122 60.5152 13.9608 73.9247 30.6951 74ZM30.6951 27.1333C31.3762 27.1333 31.9284 26.5811 31.9284 25.9V25.0093C32.8956 25.5676 33.3671 26.7058 33.0781 27.7843C32.789 28.8623 31.8116 29.6126 30.6951 29.6126C29.5792 29.6126 28.6018 28.8623 28.3127 27.7843C28.0237 26.7058 28.4952 25.5676 29.4618 25.0093V25.9C29.4618 26.5811 30.014 27.1333 30.6951 27.1333ZM29.4618 14.8307V22.3752C27.0565 22.9961 25.4884 25.3092 25.8015 27.7735C26.1141 30.2377 28.211 32.0853 30.6951 32.0853C33.1798 32.0853 35.2761 30.2377 35.5893 27.7735C35.9024 25.3092 34.3343 22.9961 31.9284 22.3752V14.8307C47.3403 15.5016 59.3906 28.3649 59.0551 43.7875C58.7197 59.2102 46.1214 71.5376 30.6951 71.5376C15.2694 71.5376 2.67109 59.2102 2.33565 43.7875C2.00022 28.3649 14.0505 15.5016 29.4618 14.8307Z" fill="#FF9F00"/>
<path d="M22.5556 61.4198C23.1 61.8287 23.8732 61.7185 24.2821 61.1735L39.0821 41.4401C39.4904 40.8951 39.3802 40.1219 38.8352 39.7136C38.2902 39.3047 37.5176 39.4149 37.1087 39.9599L22.3087 59.6932C21.8998 60.2382 22.0106 61.0115 22.5556 61.4198Z" fill="#FF9F00"/>
<path d="M24.5284 49.3333C27.2534 49.3333 29.4618 47.1244 29.4618 44.4C29.4618 41.6756 27.2534 39.4667 24.5284 39.4667C21.804 39.4667 19.5951 41.6756 19.5951 44.4C19.5951 47.1244 21.804 49.3333 24.5284 49.3333ZM24.5284 41.9333C25.8912 41.9333 26.9951 43.0378 26.9951 44.4C26.9951 45.7622 25.8912 46.8667 24.5284 46.8667C23.1662 46.8667 22.0618 45.7622 22.0618 44.4C22.0618 43.0378 23.1662 41.9333 24.5284 41.9333Z" fill="#FF9F00"/>
<path d="M31.9284 56.7333C31.9284 59.4577 34.1373 61.6667 36.8617 61.6667C39.5868 61.6667 41.7951 59.4577 41.7951 56.7333C41.7951 54.0089 39.5868 51.8 36.8617 51.8C34.1373 51.8 31.9284 54.0089 31.9284 56.7333ZM39.3284 56.7333C39.3284 58.0955 38.2246 59.2 36.8617 59.2C35.4995 59.2 34.3951 58.0955 34.3951 56.7333C34.3951 55.3711 35.4995 54.2667 36.8617 54.2667C38.2246 54.2667 39.3284 55.3711 39.3284 56.7333Z" fill="#FF9F00"/>
</svg>
