<svg width="74" height="74" fill="none" xmlns="http://www.w3.org/2000/svg"><path d="M14.26 25.862a2.642 2.642 0 01-2.377 1.469 2.642 2.642 0 01-2.377-1.469l-.124-.25-2.126 1.063.125.25a5.006 5.006 0 004.502 2.782 5.005 5.005 0 004.502-2.783l.125-.25-2.126-1.064-.124.252z" fill="#FF9F00"/><path d="M74 15.486L65.95 4.753H40.997l-1.493 1.99a27.494 27.494 0 00-14.891-4.366h-8.838A9.456 9.456 0 009.506 0C4.265 0 0 4.265 0 9.506c0 3.83 2.282 7.13 5.553 8.634a5.876 5.876 0 00-1.798 2.82c-1.172 4.163-2.567 10.09-2.567 14.69v.928l4.753 1.188v8.579c0 4.585 3.733 8.318 8.319 8.318h7.13v2.611l-2.804.622a10.018 10.018 0 00-7.891 9.838v1.188H46.76c.981 2.765 3.616 4.753 6.713 4.753a7.137 7.137 0 007.13-7.13V55.85c0-1.644-1.123-3.017-2.638-3.427.165-.411.261-.857.261-1.326v-4.153c8.85-2.146 15.448-10.114 15.448-19.613a20.24 20.24 0 00-2.093-8.94L74 15.485zM66.545 27.33c0 7.207-5.865 13.071-13.072 13.071-7.207 0-13.07-5.864-13.07-13.071 0-.864.095-1.723.27-2.573l11.055 13.268h3.491l11.055-13.268c.174.85.27 1.709.27 2.573zM48.982 52.423c-1.515.41-2.638 1.783-2.638 3.427v3.697a8.3 8.3 0 00-4.754-2.414V52.82l.783-.695a29.576 29.576 0 004.86-5.59c.487.158.986.288 1.487.409v4.153c0 .47.096.915.262 1.326zm-8.188-2.076l-.16.142-5.832-8.748c.854-.86 1.535-1.86 2.065-2.936a20.302 20.302 0 008.11 6.828 27.2 27.2 0 01-4.183 4.714zm17.057-33.71l-4.378 15.76-4.377-15.76h8.755zm-8.175-2.377l3.797-6.076 3.798 6.076h-7.595zm15.77-6.219l4.663 6.219h-8.55l3.886-6.219zm-6.031 5.165L55.617 7.13h7.596l-3.798 6.076zm-11.883 0L43.734 7.13h7.596l-3.798 6.076zm-2.144 1.054h-8.55L41.5 8.04l3.887 6.219zm-8.39 2.376h9.63l4.816 17.335-14.446-17.335zm18.505 17.335l4.815-17.335h9.631L55.503 33.971zM2.377 9.506a7.137 7.137 0 017.13-7.13 7.137 7.137 0 017.13 7.13h2.376a9.435 9.435 0 00-1.286-4.753h6.885c4.808 0 9.432 1.354 13.462 3.895l-5.128 6.838 2.42 2.904a20.24 20.24 0 00-2.094 8.94c0 .426.038.841.065 1.26-1.456-.161-3.016.223-4.168 1.191l-2.161-8.644a5.933 5.933 0 00-5.765-4.5H9.506a7.137 7.137 0 01-7.13-7.13zm29.707 57.039H13.16a7.647 7.647 0 015.94-6.328l4.666-1.037v-4.518h2.377v-2.377H14.26a5.952 5.952 0 01-5.822-4.753h2.884a9.73 9.73 0 008.753-5.41l-2.126-1.064a7.368 7.368 0 01-6.627 4.097H8.318V35.91l-4.733-1.182c.182-4.44 1.594-10.05 2.457-13.124a3.569 3.569 0 013.43-2.59h11.771a3.562 3.562 0 013.46 2.7l3.172 12.695 2.629-2.628c.569-.57 1.333-.884 2.212-.884.32 0 .622.066.915.164.338 1.8.922 3.51 1.704 5.108a8.728 8.728 0 01-2.246 3.924l-1.347 1.348 7.472 11.205v4.488c-4.024.58-7.13 4.042-7.13 8.223v1.189zm2.377 0v-1.189a5.948 5.948 0 015.941-5.941 5.948 5.948 0 015.942 5.941v1.189H34.46zm23.766 0a4.758 4.758 0 01-4.754 4.753 4.758 4.758 0 01-4.753-4.753V55.85c0-.656.532-1.188 1.188-1.188h7.13c.656 0 1.189.532 1.189 1.188v10.695zM55.85 51.097c0 .656-.532 1.188-1.188 1.188h-2.377a1.189 1.189 0 01-1.188-1.188V47.38c.78.091 1.57.152 2.376.152.806 0 1.596-.06 2.377-.152v3.717zM71.298 27.33c0 9.828-7.996 17.824-17.825 17.824-9.828 0-17.824-7.996-17.824-17.824 0-2.38.487-4.737 1.404-6.916l1.766 2.119a15.268 15.268 0 00-.794 4.797c0 8.518 6.93 15.448 15.448 15.448s15.448-6.93 15.448-15.448a15.32 15.32 0 00-.792-4.797l1.765-2.12a17.88 17.88 0 011.404 6.917z" fill="#FF9F00"/></svg>