<svg width="74" height="74" fill="none" xmlns="http://www.w3.org/2000/svg"><path d="M72.767 0H1.233C.553 0 0 .552 0 1.233V25.9h2.467V2.467h69.066V29.6H28.367v2.467h44.4c.68 0 1.233-.552 1.233-1.233v-29.6C74 .551 73.448 0 72.767 0z" fill="#FF9F00"/><path d="M65.367 6.167H40.7v2.466h24.667V6.167zm3.7 7.4H44.4v2.466h24.667v-2.466zm-4.934 7.4H39.467v2.466h24.666v-2.466zM39.368 10.633a3.98 3.98 0 00-5.307-2.1l-10 5.187a6.099 6.099 0 00.606-2.62 6.167 6.167 0 00-12.334 0 6.106 6.106 0 001.265 3.7h-.051a8.463 8.463 0 00-7.862 5.475L2.393 31.624a3.95 3.95 0 005.149 5.088 3.983 3.983 0 002.268-2.371l1.29-4.105v17.85a6.108 6.108 0 00-3.7-1.265 6.158 6.158 0 00-4.303 10.57A5.682 5.682 0 000 62.431v10.336C0 73.447.552 74 1.233 74h12.334c.68 0 1.233-.552 1.233-1.233V62.432a5.669 5.669 0 00-2.2-4.465h9.334a5.668 5.668 0 00-2.2 4.465v10.335c0 .68.551 1.233 1.232 1.233H33.3c.681 0 1.233-.552 1.233-1.233V62.432a5.682 5.682 0 00-3.096-5.04A6.161 6.161 0 0025.9 46.946v-25.23l11.322-5.88a3.98 3.98 0 002.146-5.203zM18.5 7.4a3.7 3.7 0 110 7.4 3.7 3.7 0 010-7.4zM7.4 49.288a3.7 3.7 0 110 7.4 3.7 3.7 0 010-7.4zm4.933 22.245H2.467v-9.102A3.236 3.236 0 015.699 59.2H9.1a3.236 3.236 0 013.232 3.231v9.102zm19.734-9.102v9.102H22.2v-9.102a3.236 3.236 0 013.232-3.231h3.403a3.236 3.236 0 013.232 3.231zm-4.934-13.143a3.7 3.7 0 110 7.4 3.7 3.7 0 010-7.4zm9.979-36.597a1.586 1.586 0 01-.931.913l-12.082 6.268a1.234 1.234 0 00-.666 1.095v27.119a6.084 6.084 0 00-1.919 7.414h-1.78V34.533h-2.467V55.5h-4.248a6.104 6.104 0 00.543-2.467h.005V22.2a1.234 1.234 0 00-2.41-.37L7.474 33.55a1.482 1.482 0 01-2.057.82 1.514 1.514 0 01-.689-1.959L8.02 21.063a5.959 5.959 0 015.527-3.796h8.733c.197 0 .392-.048.567-.139l12.259-6.363a1.518 1.518 0 011.94.72 1.5 1.5 0 01.066 1.206zM51.17 57.392a6.167 6.167 0 10-8.607 0 5.682 5.682 0 00-3.096 5.04v10.335c0 .68.551 1.233 1.232 1.233h12.334c.681 0 1.233-.552 1.234-1.233V62.432a5.682 5.682 0 00-3.097-5.04zm-4.303-8.104a3.7 3.7 0 110 7.4 3.7 3.7 0 010-7.4zM51.8 71.533h-9.867v-9.102a3.236 3.236 0 013.232-3.231h3.403a3.236 3.236 0 013.232 3.231v9.102zm19.103-14.141a6.167 6.167 0 10-8.606 0 5.682 5.682 0 00-3.097 5.04v10.335c0 .68.552 1.233 1.233 1.233h12.334c.68 0 1.233-.552 1.233-1.233V62.432a5.682 5.682 0 00-3.097-5.04zM66.6 49.288a3.7 3.7 0 110 7.4 3.7 3.7 0 010-7.4zm4.933 22.245h-9.866v-9.102a3.236 3.236 0 013.232-3.231H68.3a3.236 3.236 0 013.232 3.231v9.102z" fill="#FF9F00"/></svg>