<svg width="61" height="61" fill="none" xmlns="http://www.w3.org/2000/svg"><path d="M22.152 6.905c-8.601 0-15.599 6.997-15.599 15.598 0 4.465 1.886 8.497 4.902 11.342.052.056.107.108.167.156a15.538 15.538 0 0010.53 4.1c4.054 0 7.752-1.555 10.529-4.1.06-.048.115-.1.167-.156a15.556 15.556 0 004.902-11.342c0-8.6-6.998-15.598-15.598-15.598zm0 28.306c-2.97 0-5.704-1.024-7.87-2.737a8.854 8.854 0 017.87-4.728 8.855 8.855 0 017.868 4.728 12.645 12.645 0 01-7.869 2.737zm-3.043-13.398V20.69a3.046 3.046 0 013.042-3.042 3.046 3.046 0 013.042 3.042v1.122a3.046 3.046 0 01-3.042 3.042 3.046 3.046 0 01-3.042-3.042zm13.025 8.544a11.699 11.699 0 00-5.524-4.637 5.906 5.906 0 001.474-3.907v-1.122a5.94 5.94 0 00-5.933-5.933 5.94 5.94 0 00-5.932 5.933v1.122c0 1.495.557 2.863 1.474 3.907a11.7 11.7 0 00-5.525 4.637 12.645 12.645 0 01-2.724-7.854c0-7.007 5.7-12.707 12.707-12.707 7.007 0 12.708 5.7 12.708 12.707 0 2.962-1.019 5.691-2.725 7.854z" fill="#FF9F00"/><path d="M0 22.502C0 34.91 10.094 45.004 22.502 45.004c7.173 0 13.574-3.374 17.697-8.619L56.974 53.16a2.7 2.7 0 010 3.814 2.68 2.68 0 01-1.907.79c-.72 0-1.398-.28-1.907-.79l-8.58-8.58a1.446 1.446 0 00-2.043 2.045l8.58 8.579a5.55 5.55 0 003.95 1.637 5.551 5.551 0 003.951-1.637 5.57 5.57 0 001.634-3.95 5.57 5.57 0 00-1.634-3.952L41.861 33.96a22.363 22.363 0 003.143-11.457C45.004 10.094 34.91 0 22.502 0 10.095 0 0 10.095 0 22.502zm42.113 0c0 10.814-8.797 19.612-19.611 19.612S2.89 33.316 2.89 22.502c0-10.814 8.797-19.611 19.61-19.611 10.815 0 19.612 8.797 19.612 19.611z" fill="#FF9F00"/></svg>