<svg width="74" height="74" fill="none" xmlns="http://www.w3.org/2000/svg"><path d="M69.664 0H18.211a4.34 4.34 0 00-4.336 4.336V9.25a1.445 1.445 0 002.89 0V4.336c0-.797.649-1.445 1.446-1.445h51.453c.797 0 1.445.648 1.445 1.445v65.328c0 .797-.648 1.445-1.445 1.445H18.211a1.447 1.447 0 01-1.445-1.445v-4.673a1.445 1.445 0 00-2.891 0v4.673A4.34 4.34 0 0018.211 74h51.453A4.34 4.34 0 0074 69.664V4.336A4.34 4.34 0 0069.664 0z" fill="#FF9F00"/><path d="M62.711 55.79H28.024a1.445 1.445 0 000 2.89H62.71a1.445 1.445 0 000-2.89zm-.4 7.21H28.69c-.933 0-1.689.672-1.689 1.5s.756 1.5 1.689 1.5h33.62c.933 0 1.689-.672 1.689-1.5S63.243 63 62.31 63zM38.153 12.685c-8.6 0-15.598 6.997-15.598 15.598 0 4.465 1.885 8.496 4.902 11.342.05.056.106.108.166.156a15.538 15.538 0 0010.53 4.1c4.054 0 7.752-1.555 10.529-4.1.06-.048.116-.1.167-.156a15.556 15.556 0 004.902-11.342c0-8.6-6.997-15.598-15.598-15.598zm0 28.306c-2.97 0-5.703-1.024-7.87-2.737a8.855 8.855 0 017.87-4.728 8.854 8.854 0 017.869 4.728 12.645 12.645 0 01-7.87 2.737zM35.11 27.593V26.47a3.046 3.046 0 013.042-3.042 3.046 3.046 0 013.042 3.042v1.122a3.046 3.046 0 01-3.042 3.042 3.046 3.046 0 01-3.042-3.042zm13.025 8.544a11.7 11.7 0 00-5.524-4.637 5.907 5.907 0 001.474-3.907v-1.122a5.94 5.94 0 00-5.933-5.933 5.94 5.94 0 00-5.933 5.933v1.122c0 1.495.558 2.863 1.474 3.907a11.7 11.7 0 00-5.524 4.637 12.645 12.645 0 01-2.725-7.854c0-7.007 5.7-12.707 12.708-12.707 7.007 0 12.707 5.7 12.707 12.707 0 2.962-1.019 5.691-2.724 7.854z" fill="#FF9F00"/><path d="M38.153 5.781c-12.408 0-22.502 10.095-22.502 22.502 0 7.174 3.374 13.574 8.619 17.697L7.495 62.755a2.7 2.7 0 01-3.815 0 2.68 2.68 0 01-.79-1.907c0-.72.281-1.397.79-1.907l8.58-8.579a1.446 1.446 0 00-2.044-2.044l-8.58 8.58A5.55 5.55 0 000 60.847 5.55 5.55 0 001.637 64.8a5.57 5.57 0 003.95 1.634A5.57 5.57 0 009.54 64.8l17.156-17.156a22.364 22.364 0 0011.458 3.142c12.407 0 22.502-10.094 22.502-22.502 0-12.407-10.095-22.502-22.502-22.502zm0 42.114c-10.814 0-19.612-8.798-19.612-19.612 0-10.814 8.798-19.611 19.612-19.611 10.814 0 19.611 8.797 19.611 19.611s-8.797 19.611-19.611 19.611z" fill="#FF9F00"/></svg>